<svg width="54" height="54" viewBox="0 0 54 54" fill="none" xmlns="http://www.w3.org/2000/svg">
<g filter="url(#filter0_d_4189_233)">
<circle cx="31" cy="25" r="20" fill="white"/>
</g>
<g clip-path="url(#clip0_4189_233)">
<path d="M32.8302 32C32.6808 32.0005 32.5332 31.9676 32.3982 31.9035C32.2632 31.8395 32.1443 31.7461 32.0502 31.63L27.2202 25.63C27.0731 25.4511 26.9927 25.2267 26.9927 24.995C26.9927 24.7634 27.0731 24.539 27.2202 24.36L32.2202 18.36C32.3899 18.1558 32.6338 18.0274 32.8982 18.003C33.1627 17.9786 33.4259 18.0603 33.6302 18.23C33.8344 18.3998 33.9628 18.6437 33.9872 18.9081C34.0116 19.1725 33.9299 19.4358 33.7602 19.64L29.2902 25L33.6102 30.36C33.7324 30.5068 33.8101 30.6856 33.834 30.8751C33.8579 31.0647 33.827 31.2571 33.7449 31.4296C33.6629 31.6021 33.5331 31.7475 33.371 31.8486C33.2089 31.9497 33.0212 32.0023 32.8302 32Z" fill="#24AB70" fill-opacity="0.2"/>
</g>
<defs>
<filter id="filter0_d_4189_233" x="0" y="0" width="54" height="54" filterUnits="userSpaceOnUse" color-interpolation-filters="sRGB">
<feFlood flood-opacity="0" result="BackgroundImageFix"/>
<feColorMatrix in="SourceAlpha" type="matrix" values="0 0 0 0 0 0 0 0 0 0 0 0 0 0 0 0 0 0 127 0" result="hardAlpha"/>
<feOffset dx="-4" dy="2"/>
<feGaussianBlur stdDeviation="3.5"/>
<feComposite in2="hardAlpha" operator="out"/>
<feColorMatrix type="matrix" values="0 0 0 0 0 0 0 0 0 0.1375 0 0 0 0 0.0774074 0 0 0 0.03 0"/>
<feBlend mode="normal" in2="BackgroundImageFix" result="effect1_dropShadow_4189_233"/>
<feBlend mode="normal" in="SourceGraphic" in2="effect1_dropShadow_4189_233" result="shape"/>
</filter>
<clipPath id="clip0_4189_233">
<rect width="24" height="24" fill="white" transform="translate(19 13)"/>
</clipPath>
</defs>
</svg>
