<svg width="40" height="28" viewBox="0 0 40 28" fill="none" xmlns="http://www.w3.org/2000/svg">
<path d="M37.3913 6.17393H35.6522C35.3461 6.17393 35.0557 6.23654 34.7826 6.33393V3.56524C34.7826 2.12698 33.6122 0.956543 32.1739 0.956543H30.4348C28.9965 0.956543 27.8261 2.12698 27.8261 3.56524V9.65219H12.1739V3.56524C12.1739 2.12698 11.0035 0.956543 9.56522 0.956543H7.82609C6.38783 0.956543 5.21739 2.12698 5.21739 3.56524V6.33393C4.94435 6.23654 4.65391 6.17393 4.34783 6.17393H2.6087C1.17043 6.17393 0 7.34437 0 8.78263V19.2174C0 20.6557 1.17043 21.8261 2.6087 21.8261H4.34783C4.65391 21.8261 4.94435 21.7635 5.21739 21.6661V24.4348C5.21739 25.8731 6.38783 27.0435 7.82609 27.0435H9.56522C11.0035 27.0435 12.1739 25.8731 12.1739 24.4348V18.3478H27.8261V24.4348C27.8261 25.8731 28.9965 27.0435 30.4348 27.0435H32.1739C33.6122 27.0435 34.7826 25.8731 34.7826 24.4348V21.6661C35.0557 21.7635 35.3461 21.8261 35.6522 21.8261H37.3913C38.8296 21.8261 40 20.6557 40 19.2174V8.78263C40 7.34437 38.8296 6.17393 37.3913 6.17393ZM5.21739 19.2174C5.21739 19.6965 4.82696 20.087 4.34783 20.087H2.6087C2.12957 20.087 1.73913 19.6965 1.73913 19.2174V8.78263C1.73913 8.3035 2.12957 7.91306 2.6087 7.91306H4.34783C4.82696 7.91306 5.21739 8.3035 5.21739 8.78263V19.2174ZM10.4348 24.4348C10.4348 24.9139 10.0443 25.3044 9.56522 25.3044H7.82609C7.34696 25.3044 6.95652 24.9139 6.95652 24.4348V19.2174V8.78263V3.56524C6.95652 3.08611 7.34696 2.69567 7.82609 2.69567H9.56522C10.0443 2.69567 10.4348 3.08611 10.4348 3.56524V24.4348ZM27.8261 16.6087H12.1739V11.3913H27.8261V16.6087ZM33.0435 8.78263V19.2174V24.4348C33.0435 24.9139 32.653 25.3044 32.1739 25.3044H30.4348C29.9557 25.3044 29.5652 24.9139 29.5652 24.4348V3.56524C29.5652 3.08611 29.9557 2.69567 30.4348 2.69567H32.1739C32.653 2.69567 33.0435 3.08611 33.0435 3.56524V8.78263ZM38.2609 19.2174C38.2609 19.6965 37.8704 20.087 37.3913 20.087H35.6522C35.173 20.087 34.7826 19.6965 34.7826 19.2174V8.78263C34.7826 8.3035 35.173 7.91306 35.6522 7.91306H37.3913C37.8704 7.91306 38.2609 8.3035 38.2609 8.78263V19.2174Z" fill="#24AB70"/>
</svg>
