<svg width="24" height="40" viewBox="0 0 24 40" fill="none" xmlns="http://www.w3.org/2000/svg">
<path d="M3.27814 39.8789C3.77033 40.122 4.36822 39.9913 4.71314 39.5587L23.4631 16.043C23.7438 15.6911 23.798 15.2095 23.6027 14.804C23.4074 14.3984 22.997 14.1406 22.5469 14.1406H15.0634L21.2525 1.69367C21.4331 1.33039 21.4131 0.899531 21.1993 0.554688C20.9857 0.209844 20.6088 0 20.2031 0H6.14064C5.60244 0 5.13346 0.366563 5.00346 0.88875L0.315955 19.7169C0.228846 20.0669 0.307752 20.4375 0.529783 20.7216C0.751893 21.0059 1.09252 21.1719 1.45314 21.1719H6.98502L2.65978 38.545C2.52658 39.0798 2.784 39.635 3.27814 39.8789ZM9.62158 20.2831C9.70869 19.9331 9.62978 19.5625 9.40775 19.2784C9.18564 18.9941 8.84502 18.8281 8.48439 18.8281H2.95252L7.0565 2.34375H18.3116L12.1224 14.7907C11.9418 15.154 11.9619 15.5848 12.1756 15.9297C12.3892 16.2746 12.7662 16.4844 13.1718 16.4844H20.1136L6.23314 33.8928L9.62158 20.2831Z" fill="#24AB70"/>
</svg>
