<svg width="36" height="40" viewBox="0 0 36 40" fill="none" xmlns="http://www.w3.org/2000/svg">
<path d="M19.1272 7.67151H14.4805C13.8236 7.67151 13.3086 8.20885 13.3086 8.84338V25.5317C13.3086 26.1789 13.8333 26.7035 14.4805 26.7035C15.1277 26.7035 15.6523 26.1789 15.6523 25.5317V19.4483C16.7398 19.4422 18.3313 19.4342 19.1273 19.4342C20.698 19.4342 22.1873 18.8263 23.3209 17.7225C24.4687 16.605 25.1008 15.1242 25.1008 13.5528C25.1008 11.9815 24.4687 10.5006 23.3209 9.38307C22.1873 8.2794 20.698 7.67151 19.1272 7.67151ZM19.1272 17.0904C18.3359 17.0904 16.767 17.0983 15.678 17.1044C15.6581 13.4546 15.6695 14.6819 15.6559 10.0153H19.1272C21.0948 10.0153 22.757 11.6353 22.757 13.5528C22.757 15.4704 21.0948 17.0904 19.1272 17.0904Z" fill="#24AB70"/>
<path d="M30.1532 5.03406C26.907 1.78781 22.5907 0 17.9997 0C13.4087 0 9.09253 1.78781 5.84628 5.03406C-3.59082 14.4712 0.891442 30.739 13.9372 33.8911V38.0469C13.9372 39.1238 14.8134 40 15.8903 40H20.1091C21.186 40 22.0622 39.1238 22.0622 38.0469V33.8911C35.1206 30.7359 39.5837 14.4645 30.1532 5.03406ZM19.7185 37.6562H16.281V34.2899C17.4208 34.403 18.5786 34.403 19.7185 34.2899V37.6562ZM20.68 31.7902C11.6447 33.4389 3.15597 26.5484 3.15597 17.1875C3.15597 9.00266 9.8148 2.34375 17.9997 2.34375C26.1846 2.34375 32.8435 9.00266 32.8435 17.1875C32.8435 24.3529 27.7406 30.5017 20.68 31.7902Z" fill="#24AB70"/>
</svg>
