<svg width="40" height="32" viewBox="0 0 40 32" fill="none" xmlns="http://www.w3.org/2000/svg">
<path d="M1.49343 24.5808C16.6948 20.2595 22.251 28.9919 39.1247 24.5874C39.7509 24.424 40.126 23.7837 39.9626 23.1576C39.7991 22.5314 39.1589 22.1563 38.5327 22.3197C35.22 23.1844 32.3486 23.5045 29.7484 23.5079L26.3509 18.0322C28.3592 20.5276 32.0916 20.6714 34.2785 18.3459C35.24 17.3236 35.7458 15.9879 35.7028 14.5851C35.5586 9.88247 29.7968 7.7724 26.6236 11.1465C25.095 12.772 24.8177 15.0832 25.6784 16.948L21.0296 9.45552L27.9282 7.46482C30.0706 6.84661 31.0831 4.39427 29.9946 2.44372C29.2042 1.02747 27.5637 0.352317 26.0056 0.802005L15.5616 3.81583C12.8537 4.59732 11.6411 7.74513 13.128 10.1417L16.2847 15.2294C14.0091 16.6419 6.79171 21.1176 6.71507 21.1707C4.90343 21.3622 2.96327 21.7263 0.852724 22.3263C0.230224 22.5033 -0.131026 23.1514 0.0459271 23.774C0.222802 24.3966 0.871162 24.7577 1.49343 24.5808ZM28.3309 12.7523C29.434 11.5793 31.2754 11.5261 32.445 12.6261C33.6167 13.728 33.6734 15.5683 32.5713 16.7403C31.4695 17.9118 29.629 17.9686 28.4571 16.8665C27.2853 15.7645 27.2287 13.9242 28.3309 12.7523ZM18.8939 14.9897L15.1194 8.90615C14.4528 7.83169 14.9955 6.41865 16.2113 6.06779L26.6553 3.05396C27.1605 2.90802 27.6918 3.127 27.948 3.58591C28.3014 4.21927 27.9711 5.01302 27.2784 5.21294L18.8931 7.63271C18.1468 7.8481 17.8134 8.71763 18.2223 9.37646L26.9165 23.3891C21.4487 22.9301 17.006 21.2811 11.3805 21.0306L18.516 16.6032C19.0659 16.262 19.2352 15.5396 18.8939 14.9897Z" fill="#24AB70"/>
<path d="M38.5319 27.7885C22.3879 32.0027 16.723 23.2833 0.851747 27.7951C0.229247 27.9721 -0.132003 28.6202 0.0449505 29.2428C0.221904 29.8654 0.870263 30.2266 1.49261 30.0496C16.6939 25.7283 22.2502 34.4608 39.1239 30.0562C39.7501 29.8928 40.1252 29.2526 39.9617 28.6264C39.7983 28.0001 39.1581 27.6251 38.5319 27.7885Z" fill="#24AB70"/>
</svg>
